<svg width="18" height="14" viewBox="0 0 18 14" fill="none" xmlns="http://www.w3.org/2000/svg">
<path fill-rule="evenodd" clip-rule="evenodd" d="M17.5 7.00001C17.5 7.70418 16.9292 8.27501 16.225 8.27501H4.94054L8.60871 11.606C9.1163 12.094 9.13212 12.9011 8.64406 13.4087C8.156 13.9163 7.34887 13.9321 6.84129 13.4441L0.891286 7.91908C0.641287 7.67869 0.5 7.34684 0.5 7.00001C0.5 6.65319 0.641287 6.32134 0.891286 6.08095L6.84129 0.555952C7.34887 0.0678899 8.156 0.0837162 8.64406 0.5913C9.13212 1.09888 9.1163 1.90601 8.60871 2.39408L4.94054 5.72501H16.225C16.9292 5.72501 17.5 6.29585 17.5 7.00001Z" fill="#262626"/>
</svg>
