<svg width="18" height="14" viewBox="0 0 18 14" fill="none" xmlns="http://www.w3.org/2000/svg">
<path fill-rule="evenodd" clip-rule="evenodd" d="M0.5 7.00001C0.5 6.29585 1.07084 5.72501 1.775 5.72501H13.0595L9.39129 2.39408C8.8837 1.90601 8.86788 1.09888 9.35594 0.5913C9.844 0.0837165 10.6511 0.0678899 11.1587 0.555952L17.1087 6.08095C17.3587 6.32134 17.5 6.65319 17.5 7.00001C17.5 7.34684 17.3587 7.67869 17.1087 7.91908L11.1587 13.4441C10.6511 13.9321 9.844 13.9163 9.35594 13.4087C8.86788 12.9011 8.8837 12.094 9.39129 11.606L13.0595 8.27501H1.775C1.07084 8.27501 0.5 7.70418 0.5 7.00001Z" fill="#262626"/>
</svg>
